<svg width="26" height="18" viewBox="0 0 26 18" fill="none" xmlns="http://www.w3.org/2000/svg">
<path d="M1.2987 15.4286H24.7013C25.0327 15.4289 25.3514 15.5544 25.5924 15.7794C25.8333 16.0043 25.9783 16.3118 25.9978 16.6389C26.0172 16.9661 25.9096 17.2882 25.6969 17.5395C25.4842 17.7908 25.1825 17.9523 24.8534 17.991L24.7013 18H1.2987C0.967323 17.9996 0.64859 17.8742 0.407626 17.6492C0.166663 17.4242 0.0216567 17.1168 0.00223629 16.7896C-0.0171841 16.4625 0.0904468 16.1404 0.303138 15.8891C0.515829 15.6378 0.817526 15.4763 1.14659 15.4376L1.2987 15.4286ZM1.2987 7.71429L24.7013 7.71171C25.0327 7.71208 25.3514 7.83756 25.5924 8.06252C25.8333 8.28748 25.9783 8.59494 25.9978 8.92208C26.0172 9.24922 25.9096 9.57134 25.6969 9.82264C25.4842 10.0739 25.1825 10.2354 24.8534 10.2741L24.7013 10.2831L1.2987 10.2857C0.967323 10.2854 0.64859 10.1599 0.407626 9.93491C0.166663 9.70995 0.0216567 9.40249 0.00223629 9.07535C-0.0171841 8.74821 0.0904468 8.42608 0.303138 8.17479C0.515829 7.92349 0.817526 7.76199 1.14659 7.72329L1.2987 7.71429ZM1.2987 0H24.7013C25.0327 0.000363481 25.3514 0.125844 25.5924 0.350805C25.8333 0.575765 25.9783 0.883225 25.9978 1.21036C26.0172 1.5375 25.9096 1.85963 25.6969 2.11093C25.4842 2.36222 25.1825 2.52372 24.8534 2.56243L24.7013 2.57143H1.2987C0.967323 2.57106 0.64859 2.44558 0.407626 2.22062C0.166663 1.99566 0.0216567 1.6882 0.00223629 1.36106C-0.0171841 1.03392 0.0904468 0.711798 0.303138 0.460501C0.515829 0.209204 0.817526 0.0477046 1.14659 0.00899996L1.2987 0Z" fill="#E04197"/>
</svg>
